<svg width="24" height="24" viewBox="0 0 24 24" fill="none" xmlns="http://www.w3.org/2000/svg">
<path d="M19.36 7.22837C19.9813 6.60706 19.9813 5.59972 19.36 4.97842L19.0214 4.63981C18.4001 4.0185 17.3928 4.0185 16.7715 4.63981L11.9999 9.41136L7.22837 4.63981C6.60706 4.0185 5.59972 4.0185 4.97842 4.63981L4.63981 4.97842C4.0185 5.59972 4.0185 6.60706 4.63981 7.22836L9.41136 11.9999L4.63981 16.7715C4.0185 17.3928 4.0185 18.4001 4.63981 19.0214L4.97842 19.36C5.59972 19.9813 6.60706 19.9813 7.22836 19.36L11.9999 14.5885L16.7715 19.36C17.3928 19.9813 18.4001 19.9813 19.0214 19.36L19.36 19.0214C19.9813 18.4001 19.9813 17.3928 19.36 16.7715L14.5885 11.9999L19.36 7.22837Z" fill="#F64B3C"/>
</svg>
