<svg width="24" height="24" viewBox="0 0 24 24" fill="none" xmlns="http://www.w3.org/2000/svg">
<circle cx="11.8659" cy="21.6523" r="1.82609" fill="#3282B8"/>
<path d="M15.4729 1.82364C14.131 1.16186 12.6229 0.912883 11.1395 1.10818C9.65602 1.30348 8.26379 1.9343 7.13884 2.92085C6.40848 3.56136 5.81208 4.33314 5.37757 5.19127C4.98707 5.96249 5.49639 6.83203 6.33138 7.05576L6.83534 7.1908C7.67033 7.41453 8.50876 6.8859 9.03999 6.20395C9.19093 6.01019 9.36047 5.83018 9.54688 5.6667C10.1288 5.15641 10.8489 4.83013 11.6162 4.72911C12.3835 4.6281 13.1635 4.75688 13.8576 5.09918C14.5517 5.44148 15.1288 5.98192 15.5157 6.65216C15.9027 7.3224 16.0822 8.09234 16.0316 8.8646C15.981 9.63687 15.7025 10.3768 15.2314 10.9908C14.7602 11.6048 14.1176 12.0653 13.3847 12.3141C12.7826 12.5217 12.6206 12.5217 12 12.5217L11.4783 12.5217C10.6138 12.5217 9.91305 13.2225 9.91305 14.0869V16.6956C9.91305 17.5601 10.6138 18.2608 11.4783 18.2608H12C12.8645 18.2608 13.5652 17.5601 13.5652 16.6956C13.5652 16.3126 13.8428 15.9887 14.2106 15.8822C14.3232 15.8496 14.439 15.813 14.5587 15.7724C15.9755 15.2915 17.218 14.4012 18.1288 13.2141C19.0397 12.027 19.5781 10.5965 19.6759 9.10347C19.7738 7.61041 19.4267 6.12187 18.6786 4.82607C17.9305 3.53027 16.8149 2.48542 15.4729 1.82364Z" fill="#3282B8"/>
</svg>
