<svg width="22" height="15" viewBox="0 0 22 15" fill="none" xmlns="http://www.w3.org/2000/svg">
<path d="M21.9971 7.41965C21.9921 7.39264 21.9846 7.36564 21.9771 7.34109C21.9096 7.04892 21.6422 6.84268 21.3372 6.85005L2.43968 6.85005L8.31891 1.07546C8.44639 0.95761 8.51638 0.795568 8.51888 0.623705C8.51638 0.368366 8.3589 0.140033 8.11643 0.044281C7.87646 -0.0490156 7.599 0.00745428 7.41902 0.191593L0.439941 7.02682L0 7.47857L0.439941 7.93033L7.41902 14.7656C7.574 14.9522 7.82147 15.0381 8.06144 14.9841C8.29891 14.9301 8.48638 14.7459 8.54138 14.5127C8.59637 14.277 8.50888 14.0339 8.31891 13.8817L2.43968 8.1071L21.3372 8.1071C21.5222 8.11447 21.6996 8.04081 21.8246 7.91069C21.9521 7.77811 22.0146 7.59888 21.9971 7.41965Z" fill="#262626"/>
</svg>
