<svg width="24" height="25" viewBox="0 0 24 25" fill="none" xmlns="http://www.w3.org/2000/svg">
<g clip-path="url(#clip0_35_2)">
<path opacity="0.2" fill-rule="evenodd" clip-rule="evenodd" d="M12 0.489014C15.1826 0.489014 18.2348 1.7533 20.4853 4.00373C22.7357 6.25417 24 9.30642 24 12.489C24 15.6716 22.7357 18.7239 20.4853 20.9743C18.2348 23.2247 15.1826 24.489 12 24.489C8.8174 24.489 5.76516 23.2247 3.51472 20.9743C1.26428 18.7239 0 15.6716 0 12.489C0 9.30642 1.26428 6.25417 3.51472 4.00373C5.76516 1.7533 8.8174 0.489014 12 0.489014V0.489014ZM17.568 7.03568L12 12.129L6.432 7.03568L5.45467 7.94901L11.0133 13.0343L5.45333 18.121L6.432 19.0343L12 13.937L17.568 19.0343L18.5453 18.121L12.9867 13.0357L18.5467 7.94901L17.5693 7.03568H17.568Z" fill="#131415"/>
</g>
<defs>
<clipPath id="clip0_35_2">
<rect width="24" height="24" fill="white" transform="translate(0 0.489014)"/>
</clipPath>
</defs>
</svg>
